<svg width="136" height="57" viewBox="0 0 136 57" fill="none" xmlns="http://www.w3.org/2000/svg">
<rect width="136" height="57" fill="white"/>
<rect width="1" height="22" transform="matrix(1 0 0 -1 59 39)" fill="#939393"/>
<path d="M23.4169 32.751H30.8338L32.0423 35.6561H22.0272L20.426 39H16L26.9668 17H30.0332L41 39H36.5891L28.5076 22.0083L23.4169 32.751Z" fill="#DA291C"/>
<path d="M124.422 17.0118C120.97 17.0118 117.888 18.614 115.871 21.1105V17.0118H91.0317V30.0317L78 17V39H115.869V34.9012C117.888 37.3978 120.968 39 124.42 39C130.482 39 135.414 34.0677 135.414 28.0059C135.414 21.944 130.484 17.0118 124.422 17.0118ZM113.428 30.0435H99.9902V25.9722H113.428V30.0435ZM99.9902 19.4534H113.428V23.5247H99.9902V19.4534ZM80.4436 22.8991L94.1029 36.5584H80.4436V22.8991ZM93.4733 32.4733V19.4534H97.5447V36.5447L93.4733 32.4733ZM99.9882 36.5564V32.4851H113.426V36.5564H99.9882ZM124.42 36.5564C119.705 36.5564 115.869 32.7204 115.869 28.0059C115.869 23.2913 119.705 19.4553 124.42 19.4553C129.135 19.4553 132.971 23.2913 132.971 28.0059C132.971 32.7204 129.135 36.5564 124.42 36.5564Z" fill="#242424"/>
<path d="M124.422 23.5267C121.951 23.5267 119.943 25.5368 119.943 28.0059C119.943 30.475 121.953 32.4851 124.422 32.4851C126.891 32.4851 128.901 30.475 128.901 28.0059C128.901 25.5368 126.891 23.5267 124.422 23.5267ZM124.422 30.0415C123.3 30.0415 122.386 29.1277 122.386 28.0059C122.386 26.8841 123.3 25.9702 124.422 25.9702C125.544 25.9702 126.458 26.8841 126.458 28.0059C126.458 29.1277 125.544 30.0415 124.422 30.0415Z" fill="#242424"/>
</svg>
